<?xml version="1.0" encoding="utf-8"?>
<!-- Generator: Adobe Illustrator 26.0.1, SVG Export Plug-In . SVG Version: 6.00 Build 0)  -->
<svg version="1.0" id="layer" xmlns="http://www.w3.org/2000/svg" xmlns:xlink="http://www.w3.org/1999/xlink" x="0px" y="0px"
	 viewBox="0 0 167.8 167.8" style="enable-background:new 0 0 167.8 167.8;" xml:space="preserve">
<style type="text/css">
	.st0{opacity:0.53;fill:#42BA85;}
	.st1{fill:#42BA85;}
</style>
<g>
	<g>
		<path class="st0" d="M81.4,103.8c-0.8-1.2-0.8-2.8-2-3.8c-0.2-0.2-0.1-0.4-0.1-0.7c0.3-1.4-0.3-2.7-0.8-4
			c-0.2-0.6-0.5-0.9-1.1-0.4c-0.5,0.4-1.2,0.7-0.9-0.5c0.1-0.7-0.4-1.4-0.7-1.6c-1.6-1-0.4-2-0.1-2.9s0.3-2.1,1.5-2.6
			c0.2-0.1-0.3-0.5-0.4-0.7c-0.1-0.3-0.2-0.5-0.7-0.4c-0.8,0.2-1.5,0.6-2.1,1.2c-0.8,0.8-1.2,0.9-2.1-0.1c-0.1,0.7-0.3,1.1-1,0.9
			c-0.8-0.2-1.8-0.3-2.5-0.6c-0.6-0.2-1.4-0.2-1.3-1.4c0.1-0.9-2.1-1.7-3-1.4c-0.6,0.2-1.3,0-1.3-0.5c0.1-0.7-0.4-1-0.5-1.5
			c0.2-0.2,0.7-0.1,0.7-0.6c-0.4-0.2-0.7-0.1-1,0.3c-0.1,0-0.2,0-0.2,0.1c-0.6,0.5-0.4-1.2-1.1-0.4c-0.4,0.4-0.8,0.6-1.3,0.7
			c-0.2-1.7,1.2-2,2.2-2.5c0-0.5-0.5,0.1-0.6-0.3c0-0.3,0.2-0.5,0.5-0.6c1.5-0.4,2.8-1.4,4.5-1.1c0.5,0.1,0.6-0.5,0.5-0.8
			c-0.2-0.6-0.1-1.1,0.6-1.2c0.3-0.1,0.4-0.4,0.4-0.6c0.1-0.6,0.3-1,1.1-1c0.2,0,0.5-0.2,0.6-0.3c0.2-1.6,1.9-2,2.6-3.1
			c0.4-0.6,1-0.6,1.7-0.4c1.1,0.3,1.7-0.1,1.6-1.1c0-0.4,0.2-0.9,0.6-0.9c0.5-0.1,1.1-0.1,1.3,0.4c0.3,0.7,0.8,0.6,1.3,0.3
			c0.6-0.3,1.1-0.2,1.5,0.1c0.8,0.7,1.7,0.4,2.3-0.1c0.7-0.6,1.3-0.6,2.1-0.5c0.6,0.1,1.1,0,0.8-0.8c-0.2-0.7,0.3-1.5-0.3-2.2
			c-0.2-0.2,0.2-0.5,0.5-0.5c0.8-0.2,1.5,0.1,1.9,0.7c0.4,0.5,0.7,1.1,1.1,1.7c0.5,0.7,0.9,1.4,1.8,1.7c0.5,0.2,1,0.5,1.2,1.2
			c0.2,0.5,0.6,0.9,1.1,0.3c0.1-0.1,0.3-0.2,0.5-0.1c0.5,0.3,0.8,2.2,0.3,2.6c-0.2,0.1-0.3,0.3-0.2,0.5c0.7,0.8,0.2,1.9,0.5,2.8
			c0,0.1,0.1,0.3,0,0.3c-1.2,1.1,0.1,1.6,0.6,2.3c0.3,0.4,0.7,0.6,0.8,1.1c0.1,0.4,0.5,0.7,0.2,1.1s-0.7,0.2-1.1,0.2
			c-0.5,0.1-0.3-0.5-0.4-0.8c-0.3-0.6-0.2-1.6-1.3-1.6c-0.3,0-0.2-0.3-0.3-0.6c-0.1-1-0.7-1.3-1.6-0.9c-0.7,0.4-0.9,0.1-0.7-0.5
			c0.1-0.4,0-0.5-0.3-0.6s-0.5,0.1-0.6,0.3c-0.3,0.4-0.4,1-1.1,1.3c-0.3,0.1-0.1,0.6,0.1,0.7c0.5,0.2,0.8,1.3,1.7,0.5
			c0.2-0.2,0.8,0.1,1.2,0.2c-0.1,0.5-0.6,0.4-0.8,0.6c-0.4,0.6-1,0.9-0.1,1.8c0.7,0.7,2.1,1.3,1.4,2.8c1.1,0.9,0.1,1.7-0.2,2.6
			c-0.3,0.9-0.7,1.7-1.5,2.3c-1,0.8-2.2,0.7-3.2,1.5c-0.4,0.4-0.9,0.5-0.4,1.2c0.3,0.4,0,0.6-0.3,0.9c-0.2,0.2-0.5,0.2-0.7,0
			c-0.3-0.4,0-0.6,0.3-0.7c0.4-0.2,0.2-0.4,0.1-0.7c-0.2-0.5-0.5-0.5-0.9-0.4c-0.7,0.2-1.2,0.6-1.4,1.3c-0.2,0.8,0.4,1.3,0.9,1.7
			c0.6,0.5,1.1,1,1.3,1.7c0.3,1.1,0.1,2-1,2.5c-0.5,0.2-0.6,0.8-1.1,0.9c-0.7-1.2-1.9-2-3-2.8c-0.9,2.2-0.7,3.1,1.2,4.5
			c1,0.8,0.6,2,1.2,2.9C82,104.3,81.8,103.8,81.4,103.8L81.4,103.8z"/>
		<path class="st1" d="M41.5,56.8c5.2,19.4,14.6,36.8,25.4,53.8c-1.8,0.1-3.5-0.2-5.2-0.3c-0.3,0-0.4-0.3-0.6-0.6
			c-8-12.4-15-25.4-19.2-39.7c-0.9-3.1-1.7-6.2-1.7-9.4C40.1,58.9,40.4,58.2,41.5,56.8z"/>
		<path class="st1" d="M123.3,118.8c-5.2-19.5-14.7-37-25.5-53.9c1.7,0.1,3.3,0.2,4.8,0.3c0.5,0,0.7,0.2,0.9,0.6
			c8.4,12.8,15.5,26.1,19.7,40.8c0.7,2.5,1.2,5.1,1.5,7.8C124.9,116.2,124.2,117.5,123.3,118.8z"/>
		<path class="st1" d="M109.9,89.7c0.8,1.6,1.4,3.1,2.2,4.5c0.2,0.4,0,0.7-0.1,1.1c-6.3,12.4-13.4,24.2-22.7,34.5
			c-2.7,2.9-5.5,5.7-8.8,8c-1.4,1-2.9,1.1-4.4,0.9C90.2,124.5,100.6,107.5,109.9,89.7z"/>
		<path class="st1" d="M55.2,86c-0.8-1.6-1.5-3-2.2-4.4c-0.2-0.4-0.1-0.6,0-1c6.6-13.4,14.2-26.1,24.5-37.1c2.2-2.3,4.4-4.5,7.1-6.2
			c1.3-0.8,2.3-1,3.9-0.6C74.4,51.1,64.3,68.2,55.2,86z"/>
		<path class="st1" d="M70.3,63c1-1.4,1.9-2.8,2.8-4.1c0.2-0.3,0.5-0.4,0.8-0.4c15.3-0.9,30.5-0.5,45.5,3.4c2.4,0.6,4.7,1.5,7,2.5
			c1.6,0.7,2.6,1.9,3.2,3.5C110.2,62.6,90.4,62.2,70.3,63z"/>
		<path class="st1" d="M35.3,107.6c5.9,1.9,12,2.9,18.2,3.7c5.2,0.6,10.5,1.1,15.8,1.3c6.1,0.3,12.1,0.3,18.2,0.2
			c2.3-0.1,4.6-0.2,7.1-0.3c-1,1.5-2,2.9-3,4.3c-0.2,0.3-0.5,0.2-0.8,0.2c-14.1,0.8-28.1,0.5-41.9-2.5c-3.6-0.8-7.2-1.8-10.6-3.4
			c-1.6-0.7-2.5-1.9-3.1-3.4C35.2,107.7,35.2,107.7,35.3,107.6z"/>
		<path class="st1" d="M59.4,110.1c-0.7,0-1.2-0.1-1.7-0.1c-2.2,0.1-3.4-1-4.6-2.8c-6.6-10.3-11.9-21.2-15-33.1
			c-0.7-2.6-1.1-5.2-1.1-7.9c0-1.9,0.1-2.1,1.4-3.9c0.4,3.4,1.2,6.6,2.2,9.8c1.9,6.2,4.5,12.1,7.3,18c3.2,6.6,6.8,13,10.9,19.1
			C59,109.4,59.1,109.7,59.4,110.1z"/>
		<path class="st1" d="M105.6,65.5c1.3,0,2.7,0.2,4,0.4c0.4,0.1,0.6,0.3,0.8,0.6c7.8,11.6,13.9,24,16.9,37.8
			c0.4,1.7,0.5,3.4,0.5,5.1c0.1,1.5-0.5,2.7-1.5,4c-0.5-4.5-1.7-8.6-3.1-12.7c-4.2-12-10-23.1-16.9-33.8c-0.3-0.4-0.5-0.8-0.8-1.3
			C105.5,65.7,105.5,65.6,105.6,65.5z"/>
		<path class="st1" d="M113.2,96.7c0.1,0.2,0.2,0.3,0.3,0.4c1.8,3.6,1.8,3.6,0,7.1c-5.1,9.9-11.3,19-18.9,27
			c-2.3,2.4-4.7,4.5-7.5,6.3c-2,1.2-2.1,1.3-4.6,1.1C96,127.1,105,112.3,113.2,96.7z"/>
		<path class="st1" d="M38.4,113.3c0.2-0.1,0.4,0,0.7,0.1c5.8,2.4,12,3.5,18.2,4.4c9.2,1.3,18.4,1.6,27.7,1.3c0.9,0,1.7-0.1,2.6-0.1
			c0.8,0,1.6,0,2.7,0c-0.9,1.2-1.7,2.3-2.5,3.4c-0.2,0.3-0.5,0.3-0.8,0.3c-12.9,0.9-25.7,0.1-38.2-3.3c-2.6-0.7-5-1.7-7.3-2.9
			C39.9,115.8,39,114.7,38.4,113.3L38.4,113.3z"/>
		<path class="st1" d="M74.7,56.6c0.8-1.3,1.6-2.3,2.4-3.3c0.2-0.3,0.5-0.4,0.8-0.4c13.7-0.9,27.2-0.2,40.4,4
			c2.2,0.7,4.2,1.6,6.1,2.8c0.9,0.6,1.4,1.3,1.7,2.5C109.5,56.4,92.3,56,74.7,56.6z"/>
		<path class="st1" d="M82.2,36.9c-8,6.5-13.9,14.6-19.4,22.9c-4.1,6.1-7.6,12.5-10.9,19.3c-0.8-1.3-1.3-2.6-1.9-3.9
			c-0.1-0.3,0-0.6,0.2-0.9c5.6-11.7,12.5-22.4,21.7-31.7c1.8-1.8,3.8-3.4,6-4.8C79.1,36.9,80.5,36.6,82.2,36.9z"/>
		<path class="st1" d="M35.2,67.7c0.8,7.7,3.5,14.7,6.5,21.7c3,6.9,6.7,13.4,11,19.9c-1.5-0.2-2.8-0.3-4-0.4c-0.4,0-0.6-0.4-0.8-0.6
			c-6.9-10.1-12-20.9-13.7-33.1c-0.2-1.7-0.2-3.4-0.1-5.1C34.1,69.1,34.8,68.5,35.2,67.7z"/>
		<path class="st1" d="M112.2,66.2c1.4,0.2,2.7,0.3,4,0.5c0.4,0,0.5,0.4,0.7,0.6c6.6,9.7,11.5,20,13.5,31.7c0.3,1.9,0.4,3.9,0.4,5.8
			c0,1.2-0.6,2.1-1.2,3.2C127.5,92.5,120.5,79.2,112.2,66.2z"/>
		<path class="st1" d="M88.6,138.7c12.3-9.6,20.2-22.2,27.4-35.8c0.6,1.4,1.1,2.6,1.7,3.9c0.1,0.2-0.1,0.4-0.2,0.6
			c-5.1,10.7-11.8,20.3-21,27.9c-1.4,1.2-3,2.1-4.6,3C90.8,138.8,89.8,138.8,88.6,138.7z"/>
		<path class="st1" d="M75.9,36.9c-12.1,9.7-19.9,22.4-27,36c-0.6-1.3-1.1-2.4-1.6-3.6c-0.2-0.3,0-0.6,0.1-0.9
			c4.9-10.6,11.4-20,20.3-27.7c1.4-1.2,3-2.3,4.7-3.2C73.5,36.9,74.6,36.7,75.9,36.9z"/>
		<path class="st1" d="M86.1,124.4c-0.9,1.1-1.6,2.2-2.5,3.3c-0.1,0.2-0.5,0.2-0.7,0.3c-11.5,0.9-22.8-0.1-33.7-3.9
			c-2-0.7-3.9-1.7-5.7-2.8c-1-0.6-1.5-1.5-2-2.5C55.9,124.5,70.8,125.1,86.1,124.4z"/>
		<path class="st1" d="M78.7,51.1C79.5,50,80.2,49,81,48c0.2-0.3,0.5-0.4,0.8-0.4c12.4-0.9,24.6,0.1,36.2,4.9
			c0.9,0.4,1.8,0.9,2.7,1.4c1.2,0.6,2.1,1.5,2.6,2.9C109,51.1,94,50.5,78.7,51.1z"/>
		<path class="st1" d="M57.6,48.2c-1.6,2.3-3.3,4.7-4.9,7c-1.8,2.7-3.6,5.5-5.1,8.4c-0.4,0.8-1,0.8-1.7,0.8c-0.6,0-0.5-0.6-0.6-0.9
			c-0.9-2.8-1.7-5.6-2.1-8.5c-0.1-0.7,0-1.2,0.7-1.6c4.1-2.5,8.6-4.1,13.2-5.3C57.3,48.2,57.5,48.2,57.6,48.2
			C57.6,48.3,57.6,48.2,57.6,48.2z"/>
		<path class="st1" d="M35.7,89.4c1.7,4.2,3.7,8.1,5.8,12.1c0.8,1.5,1.7,3.1,2.6,4.5c0.5,0.7,0.1,1.3-0.1,1.8
			c-0.3,0.6-0.8,0.2-1.2,0.1c-2.9-0.6-5.7-1.3-8.5-2.5c-0.6-0.3-0.9-0.6-0.9-1.3C33.4,99.1,34.4,94.2,35.7,89.4z"/>
		<path class="st1" d="M104.1,46.3c-5.4-0.6-10.7-0.9-16.1-0.9c-0.8,0-1.6-0.1-2.3,0.1c-0.9,0.1-1.2-0.5-1.6-1
			c-0.4-0.6,0.2-0.8,0.5-1.1c2-2.2,4-4.4,6.4-6.1c0.5-0.4,0.9-0.5,1.6-0.2c4.3,2.4,8.1,5.5,11.5,9C104.1,46.1,104.1,46.2,104.1,46.3
			z"/>
		<path class="st1" d="M60.5,128.9c2.9,0.4,5.8,0.7,8.7,0.8c3.3,0.1,6.5,0.5,9.8,0.2c0.9-0.1,1.2,0.5,1.5,1c0.4,0.5-0.2,0.7-0.5,1
			c-2,2.2-4,4.3-6.4,6.1c-0.6,0.4-1,0.5-1.7,0.2c-4.3-2.4-8-5.5-11.4-9C60.6,129.2,60.6,129.1,60.5,128.9z"/>
		<path class="st1" d="M107.3,127.3c-0.1-0.4,0.2-0.5,0.4-0.8c3.5-4.7,6.7-9.5,9.5-14.6c0.4-0.7,1-0.8,1.6-0.9
			c0.7-0.1,0.6,0.6,0.7,1c0.9,2.9,1.8,5.7,2,8.7c0,0.4,0.1,0.8-0.4,1.1C116.9,124.5,112.2,126.3,107.3,127.3L107.3,127.3z"/>
		<path class="st1" d="M129.1,86.2c-1-2.2-1.9-4.3-2.9-6.3c-1.7-3.5-3.4-7-5.5-10.3c-0.5-0.7-0.2-1.3,0.1-1.8
			c0.3-0.7,0.8-0.2,1.2-0.1c2.8,0.6,5.7,1.3,8.4,2.5c0.6,0.2,1,0.5,1,1.2C131.4,76.4,130.4,81.2,129.1,86.2z"/>
		<path class="st1" d="M105.4,150.4c0,2.7-2.5,4.9-5.7,4.9c-2.6,0-4.6-2-4.6-4.6c0-2.7,2.4-4.8,5.7-4.8
			C103.4,145.8,105.4,147.8,105.4,150.4z M102.7,150.6c0-1.4-1-2.5-2.3-2.5c-1.4,0-2.6,1-2.6,2.3c0,1.4,1,2.5,2.3,2.5
			C101.5,152.9,102.7,151.9,102.7,150.6z"/>
		<path class="st1" d="M81.9,157.4c-0.4,0-0.5,0-0.7,0c-1.6,0.2-2.7-0.4-2.9-2.1c-0.1-0.4-0.3-0.8-0.6-1.1c-0.3-0.5-0.8-0.8-1.4-0.7
			c-0.5,0.1-0.2,0.7-0.3,1.1c-0.1,0.2,0,0.5,0,0.7c-0.3,1.9,0.2,1.6-1.8,1.5c-0.8,0-1.1-0.3-1-1.2c0.3-2.3,0.4-4.6,0.6-7
			c0-0.7,0.2-1,1-0.9c1.3,0.2,2.7,0.2,4.1,0.4s2.3,0.8,2.7,2.2c0.3,1.3-0.2,2.3-1.5,2.9C81,154.5,81.3,156,81.9,157.4z M76.3,151
			c-0.3,1,0.3,1,0.9,1.1c0.8,0,1.5-0.1,1.5-1c0-1.1-0.9-1.1-1.7-1.2C75.9,149.7,76.5,150.7,76.3,151z"/>
		<path class="st1" d="M59.3,153.3c1.9-2.4,3.9-4.7,5.8-7.1c0.3-0.3,0.6-0.3,0.9-0.2c0.6,0.2,1.1,0.3,1.7,0.4
			c0.5,0.1,0.7,0.4,0.8,0.9c0.4,2.8,0.9,5.5,1.3,8.3c0.1,0.6,0,0.7-0.6,0.6c-1.1-0.3-2.3-0.4-2.2-2.1c0-0.3-0.1-0.4-0.4-0.5
			c-1.1-0.3-2.1-0.6-3.2-0.8c-0.4-0.1-0.6,0.1-0.8,0.4c-0.5,1.1-1.4,1.1-2.3,0.7C60,153.7,59.6,153.8,59.3,153.3z M66.3,148.8
			c-0.8,0.7-1.9,1.4-1.9,2.4c0,0.5,1.3,0.5,2,0.7c0.1,0,0.1,0,0.3-0.1C66.6,150.9,66.5,149.8,66.3,148.8z"/>
		<path class="st1" d="M58.3,147.5c0,0.7-0.7,1.2-1.5,0.9c-0.5-0.2-1.1-0.5-1.6-0.7c-1-0.5-1.5-0.2-1.7,0.9
			c-0.1,0.5,0.2,0.5,0.5,0.6c0.8,0.4,1.7,0.8,2.5,1.2c0.7,0.3,0.4,0.7,0.2,1.1c-0.2,0.4-0.2,0.9-1,0.6c-1.7-0.8-3.4-1.6-5.1-2.4
			c-0.5-0.2-0.5-0.5-0.3-1c1.1-2.3,2.2-4.6,3.2-6.9c0.2-0.5,0.5-0.6,1-0.3c1.6,0.8,3.2,1.6,4.9,2.3c0.8,0.3,0.4,0.7,0.2,1.2
			s-0.4,0.8-1,0.4c-0.7-0.4-1.4-0.7-2.1-1c-0.5-0.3-0.9-0.4-1.3,0.3c-0.3,0.7-0.1,1,0.5,1.2c0.7,0.3,1.3,0.6,2,0.9
			C58.1,147,58.4,147,58.3,147.5z"/>
		<path class="st1" d="M92.8,153.9c0.5,2.2,0.3,2.4-1.7,3c-0.9,0.2-1.8,0.3-2.8,0.3c-2.3-0.1-4.1-1.7-4.4-3.9
			c-0.3-2.4,0.9-4.2,3.2-5c1.5-0.5,3-0.4,4.5-0.1c0.4,0.1,0.7,0.2,0.7,0.7s0.2,1.1,0,1.7c-1-0.3-1.9-0.7-2.9-0.6
			c-1.8,0.2-3,1.5-2.8,3s1.7,2.4,3.5,2.1C91.2,154.8,92,154.4,92.8,153.9z"/>
		<path class="st1" d="M112.4,143.8c-0.9,0-1.8-0.1-2.6,0.3c-0.4,0.2-0.8,0.4-0.7,0.9c0.1,0.5,0.5,0.5,0.9,0.5
			c0.9,0.1,1.8,0,2.7,0.2c1.9,0.3,2.7,2.4,1.5,3.9c-1.1,1.5-2.8,2-4.6,1.9c-0.9,0-0.7-1.2-1.3-1.8c1.1-0.1,2.1,0.1,3-0.3
			c0.4-0.2,0.9-0.5,0.8-1s-0.6-0.5-1-0.6c-0.7,0-1.4,0-2.1-0.1c-1.1-0.1-2-0.7-2.3-1.8c-0.3-1.2,0.2-2.1,1.1-2.8
			c0.6-0.5,1.3-0.8,2.1-1C111.7,141.7,111.9,141.9,112.4,143.8z"/>
		<path class="st1" d="M50.1,29.9c0.9,1.9,1.6,3.4,2.4,5c0.2,0.4,0.4,0.8-0.2,1c-0.6,0.3-0.7-0.2-0.8-0.5c-1-1.9-1.9-3.9-2.9-5.9
			c-0.1-0.3-0.6-0.6-0.2-1c0.3-0.3,0.7-0.3,1.2-0.1c2.1,0.9,4.2,1.8,6.3,2.6c0.2,0.1,0.5,0.3,0.9,0.1c-0.8-1.6-1.5-3.1-2.2-4.7
			c-0.2-0.4-0.7-0.7,0.1-1.1s0.8,0.3,0.9,0.6c1,1.9,1.9,3.8,2.8,5.8c0.1,0.3,0.5,0.6,0.2,0.9c-0.3,0.3-0.8,0.4-1.3,0.2
			c-2-0.8-3.9-1.6-5.9-2.5C51.2,30.3,50.8,30.1,50.1,29.9z"/>
		<path class="st1" d="M110,27.1c-0.9,1.9-1.7,3.5-2.4,5.1c-0.2,0.3-0.2,0.8-0.8,0.5c-0.5-0.3-0.4-0.5-0.2-0.9c1-2,1.9-4.1,2.9-6.1
			c0.1-0.3,0.1-0.7,0.6-0.6c0.4,0.1,0.7,0.3,0.8,0.7c0.5,1.6,0.9,3.3,1.4,4.9c0.3,0.9,0.5,1.7,0.8,2.6c0.5,0,0.5-0.4,0.6-0.6
			c0.7-1.4,1.4-2.9,2-4.3c0.2-0.4,0.3-0.6,0.8-0.3c0.4,0.2,0.5,0.4,0.3,0.8c-1,2.1-2,4.3-3,6.4c-0.1,0.2-0.2,0.6-0.6,0.4
			c-0.4-0.2-0.7-0.4-0.8-0.9c-0.5-1.9-1.1-3.8-1.7-5.7C110.4,28.4,110.2,27.9,110,27.1z"/>
		<path class="st1" d="M144.4,96.8c0-2.7,1.8-4.6,4.2-4.6c2.5,0,4.3,1.9,4.3,4.4c0,2.7-1.9,4.8-4.3,4.8
			C146.2,101.4,144.3,99.4,144.4,96.8z M148.6,93.5c-1.8,0-3.2,1.4-3.2,3.4c0,1.9,1.4,3.2,3.3,3.2c1.8,0,3.1-1.5,3.1-3.4
			C151.8,94.9,150.5,93.5,148.6,93.5z"/>
		<path class="st1" d="M91.9,20.2c2.7,0,4.7,1.9,4.7,4.3s-1.9,4.3-4.4,4.3c-2.6,0-4.8-1.9-4.7-4.3C87.5,22.1,89.4,20.2,91.9,20.2z
			 M92,21.4c-1.9,0-3.2,1.3-3.2,3.2c0,1.8,1.5,3.2,3.5,3.1c1.8,0,3.2-1.4,3.2-3.2C95.4,22.7,94,21.4,92,21.4z"/>
		<path class="st1" d="M39.8,36.3c0-2.4,2.3-4.6,4.8-4.6c2.3,0,4.2,1.9,4.3,4.1c0,2.4-2.3,4.8-4.8,4.8
			C41.8,40.5,39.8,38.6,39.8,36.3z M47.7,36c0-1.7-1.4-3.1-3.1-3.2c-1.8,0-3.5,1.5-3.6,3.3c0,1.7,1.4,3.2,3.1,3.2
			C46,39.4,47.6,37.8,47.7,36z"/>
		<path class="st1" d="M133.1,52c0-2.3,1.9-4.2,4.2-4.2c2.4,0,4.6,2.2,4.6,4.8c0,2.2-1.9,4.2-4.1,4.3
			C135.4,56.8,133.1,54.5,133.1,52z M134.3,52c0,1.9,1.4,3.5,3.3,3.5c1.8,0.1,3.2-1.3,3.2-3.1s-1.6-3.5-3.3-3.5S134.3,50.3,134.3,52
			z"/>
		<path class="st1" d="M150.7,107.3c-0.1,2.7-2,4.8-4.5,4.7c-2.4,0-4.2-2-4.2-4.4c0.1-2.7,2.1-4.8,4.5-4.7
			C149,102.9,150.8,104.8,150.7,107.3z M149.6,107.4c0.1-1.8-1.3-3.3-3.1-3.4c-1.7-0.1-3.2,1.4-3.3,3.3c-0.1,1.8,1.3,3.3,3.1,3.4
			C148,110.8,149.5,109.3,149.6,107.4z"/>
		<path class="st1" d="M34.2,49.4c-3.3,0-5.4-3.3-4.1-6c0.6-1.3,1.7-2.2,3-2.9c0.5-0.3,0.9-0.1,1.1,0.3c0.3,0.6-0.4,0.5-0.6,0.6
			c-0.6,0.3-1.1,0.7-1.6,1.1c-1.4,1.4-1.4,3.4,0,4.8c1.4,1.3,3.4,1.2,4.7-0.4c0.3-0.4,0.7-0.8,0.8-1.3c0.2-0.7-0.5-0.9-0.9-1.2
			c-0.4-0.4-0.6,0.1-0.8,0.4c-0.3,0.3-0.6,0.7-1,0.2c-0.5-0.5,0.1-0.7,0.3-0.9c1.3-1.5,1.3-1.4,2.8-0.1c1.3,1.1,1.3,1.1,0.4,2.6
			C37.2,48.2,35.9,49.4,34.2,49.4z"/>
		<path class="st1" d="M149.1,90c-1.1,0-2.2,0-3.4,0c-0.5,0-0.7-0.1-0.8-0.6c0-0.6,0.3-0.6,0.7-0.6h0.1c0.9-0.2,2.1,0.4,2.6-0.4
			c0.4-0.7,0.1-1.8,0-2.7c-0.1-1.8-0.1-1.8-1.9-1.8c-0.4,0-0.8,0-1.2,0.1c-0.4,0-0.7-0.1-0.7-0.6c0-0.4,0.1-0.6,0.6-0.7
			c2.4-0.1,4.7-0.2,7.1-0.3c0.5,0,0.6,0.2,0.7,0.7c0,0.6-0.3,0.5-0.7,0.5c-0.9,0.1-2.3-0.3-2.7,0.4c-0.4,0.6-0.1,1.9,0,2.8
			c0,0.3,0.1,0.6,0,0.9c0,0.6,0.3,0.8,0.8,0.8c0.7-0.1,1.4,0,2.1-0.1c0.5,0,0.7,0.1,0.7,0.6c0,0.6-0.3,0.6-0.7,0.6
			c-1.2,0-2.3,0-3.5,0C149.1,89.8,149.1,89.9,149.1,90z"/>
		<path class="st1" d="M29.9,56.8c-0.2,1-0.6,1.3-1.4,1.3c-1,0.1-2,0-3,0.4c-0.5,0.2-1,0.5-1,1c-0.1,0.5,0.6,0.6,0.9,0.8
			c0.5,0.3,1.1,0.6,1.6,0.9c0.4,0.2,0.4,0.4,0.2,0.8c-0.2,0.4-0.4,0.4-0.8,0.2c-2.1-1.2-4.1-2.3-6.2-3.4c-0.4-0.2-0.6-0.4-0.3-0.8
			c0.4-0.7,0.7-1.5,1.3-2.2c0.6-0.6,1.3-1,2.2-0.8c0.9,0.2,1.6,0.8,1.7,1.7c0.1,0.6,0.3,0.6,0.8,0.5C27.2,57.1,28.6,57,29.9,56.8z
			 M24.2,57.6c0-0.8-0.6-1.4-1.3-1.4c-0.6,0-1.7,1-1.5,1.5c0.3,0.8,1.2,1.1,1.9,1.2C24,59.1,23.9,58.1,24.2,57.6z"/>
		<path class="st1" d="M102.3,31c-3.1,0-4.7-2-3.8-5c0.4-1.2,0.7-2.5,1.1-3.7c0.1-0.4,0.2-0.7,0.8-0.5c0.6,0.2,0.5,0.5,0.4,0.9
			c-0.4,1.4-0.9,2.8-1.2,4.2c-0.4,1.4,0.2,2.4,1.6,2.8c1.5,0.5,2.6,0,3-1.5c0.4-1.3,0.8-2.7,1.2-4c0.1-0.4,0.2-0.9,0.9-0.7
			c0.7,0.2,0.4,0.6,0.3,1c-0.4,1.5-0.8,2.9-1.3,4.3C104.7,30.3,103.7,31,102.3,31z"/>
		<path class="st1" d="M67.7,29.6c-0.8,0.7-1.2,0.3-1.7-0.3c-0.4-0.4-0.7-1.3-1.3-1.1c-1.1,0.2-2.1,0.6-3.1,1
			c-0.2,0.1-0.2,0.4-0.2,0.6c-0.1,0.5-0.1,1.1-0.2,1.6c-0.1,0.6-0.5,0.7-0.9,0.7c-0.5,0-0.2-0.5-0.2-0.7c0.2-2.5,0.5-5,0.8-7.5
			c0-0.3,0-0.7,0.5-0.8c0.4-0.1,0.6,0.1,0.8,0.3C63.9,25.5,65.8,27.5,67.7,29.6z M61.8,24.8c-0.1,1-0.2,1.8-0.2,2.5
			c0,0.2-0.1,0.7,0.3,0.6c0.7-0.2,1.4-0.3,1.9-0.7c0.2-0.2-0.5-0.7-0.8-1.1C62.6,25.7,62.3,25.4,61.8,24.8z"/>
		<path class="st1" d="M22.3,74.6c-2.1-1.8-4.2-3.6-6.2-5.4c-0.2-0.2-0.6-0.4-0.5-0.8c0.1-0.5,0.5-0.5,0.9-0.5
			c2.5-0.3,5-0.6,7.5-0.9c0.2,0,0.7-0.3,0.7,0.2c0,0.3-0.1,0.8-0.6,0.9c-0.1,0-0.2,0-0.2,0c-1.8-0.2-2.4,0.8-2.9,2.4
			c-0.3,1.1-0.2,1.7,0.8,2.3C22.5,73.2,23.1,73.7,22.3,74.6z M20.7,68.5c-1.1,0.1-2,0.3-3.2,0.4c0.3,0.3,0.5,0.5,0.7,0.6
			C20.1,71.1,20.1,71.1,20.7,68.5z"/>
		<path class="st1" d="M20.7,92.5c-2.6-1.2-5.1-2.4-7.6-3.6c-0.3-0.1-0.6-0.2-0.6-0.6s0.2-0.5,0.5-0.7c2.6-1.1,5.2-2.2,7.8-3.4
			c0.4,0.9,0,1.2-0.7,1.5c-0.6,0.2-1.5,0.3-1.6,0.9c-0.2,1.1-0.2,2.2,0,3.2c0.1,0.6,0.9,0.6,1.4,0.8C20.7,91.1,21.1,91.5,20.7,92.5z
			 M14.3,88.3c0.8,0.4,1.5,0.6,2.1,0.9c0.8,0.5,1,0.2,1-0.7c0-1.7,0-1.7-1.4-1C15.5,87.8,15,88,14.3,88.3z"/>
		<path class="st1" d="M124.5,35.1c-1.8-2.5-3.4-3.2-5.1-2.5c-1.2,0.5-2.1,1.8-2,3.1c0.2,1.8,1.6,3,4.4,3.5
			c-0.2,0.9-0.7,1.1-1.6,0.8c-1.7-0.6-3.3-1.5-3.9-3.4c-0.5-1.7-0.1-3.2,1.2-4.4c1.3-1.2,2.9-1.4,4.6-0.7c1,0.4,1.8,1.1,2.5,1.9
			C125.2,34.1,125.4,34.6,124.5,35.1z"/>
		<path class="st1" d="M85.7,21.3c-3.3-0.9-4.8-0.6-5.8,1c-0.7,1.2-0.5,2.7,0.3,3.7c1.2,1.3,3,1.4,5.5,0.3c0.3,1.1,0.3,1.1-0.6,1.5
			c-1.1,0.4-2.2,0.5-3.3,0.3c-2.3-0.4-3.8-2.4-3.5-4.7c0.3-2.2,2.5-3.9,4.9-3.7c0.6,0.1,1.1,0.2,1.7,0.3
			C85.7,20.1,86,20.5,85.7,21.3z"/>
		<path class="st1" d="M151,79.9c0.4-3.2-0.1-4.7-1.8-5.5c-1.2-0.6-2.7-0.2-3.6,0.8c-1.2,1.4-1.1,3,0.6,5.6
			c-0.8,0.5-1.3,0.2-1.6-0.5c-0.5-0.9-0.8-1.9-0.8-2.9c-0.2-2.3,1.5-4.3,3.8-4.5s4.4,1.5,4.7,3.9c0.1,0.6,0.1,1.2,0,1.9
			C152.2,79.7,152.2,79.7,151,79.9z"/>
		<path class="st1" d="M27.5,47.9c-0.4,0.6-0.8,1.1-1.2,1.8c-0.2,0.3-0.8,0.7-0.5,1c0.5,0.5,1.1,0.9,1.8,1.3
			c0.2,0.1,0.4-0.2,0.5-0.4c0.4-0.6,0.9-1.2,1.3-1.8c0.2-0.3,0.3-0.5,0.7-0.2c0.4,0.3,0.4,0.5,0.1,0.9c-0.4,0.6-0.8,1.2-1.2,1.7
			c-0.4,0.5-0.3,0.8,0.2,1.1c1.5,1.1,1.5,1.1,2.5-0.4c0.3-0.4,0.6-0.8,0.9-1.2c0.2-0.4,0.5-0.3,0.8-0.1s0.3,0.4,0.1,0.7
			c-0.8,1-1.5,2.1-2.2,3.1c-0.3,0.4-0.5,0.4-0.8,0.1c-1.9-1.4-3.9-2.7-5.8-4.1c-0.4-0.2-0.5-0.4-0.2-0.8c0.7-1,1.4-2,2.1-2.9
			c0.1-0.2,0.3-0.5,0.6-0.3C27.2,47.5,27.5,47.6,27.5,47.9z"/>
		<path class="st1" d="M23.7,126.2c-0.3,0-0.4-0.3-0.5-0.5c-0.6-1-1.2-2-1.8-3c-0.2-0.3-0.3-0.6,0.1-0.8c0.5-0.3,0.6,0,0.8,0.3
			c0.3,0.4,0.6,0.8,0.8,1.3c0.5,1.1,1,1.2,2,0.5c0.7-0.5,1-0.9,0.4-1.6c-0.4-0.5-0.7-1.1-1-1.6c-0.2-0.3-0.2-0.5,0.1-0.7
			c0.3-0.2,0.5-0.3,0.8,0.1c0.4,0.6,0.8,1.2,1.1,1.8c0.3,0.7,0.7,0.7,1.2,0.3c0.3-0.2,0.6-0.4,1-0.6s0.4-0.5,0.2-0.8
			c-0.4-0.7-0.8-1.4-1.3-2.1c-0.2-0.3-0.4-0.6,0.1-0.8c0.4-0.3,0.6,0,0.8,0.3c0.6,1,1.2,2.1,1.9,3.1c0.2,0.4,0.2,0.6-0.2,0.8
			c-2.1,1.2-4.1,2.5-6.2,3.7C23.9,126.1,23.8,126.1,23.7,126.2z"/>
		<path class="st1" d="M24.3,109.6c0.7,0.7,0.4,1.2-0.1,1.8c-0.4,0.4-1.2,0.8-1,1.5c0.3,1,0.8,2,1.3,3c0.2,0.3,0.6,0.2,0.9,0.2
			c0.5,0,1-0.1,1.5,0c0.5,0,0.6,0.5,0.6,0.9s-0.4,0.2-0.6,0.2c-2.6,0-5.1,0-7.7,0.1c-0.3,0-0.6,0-0.8-0.4c-0.2-0.4,0-0.6,0.2-0.8
			C20.5,113.9,22.3,111.8,24.3,109.6z M22.2,113.7c-0.6,0.7-1.3,1.5-2.1,2.4c1.3-0.1,2.4,0.3,3.1-0.3c0.3-0.3-0.5-1.3-0.8-2
			C22.3,113.7,22.3,113.7,22.2,113.7z"/>
		<path class="st1" d="M16.5,106.5c-0.2,0.9-0.4,1.6-0.1,2.2c0.2,0.5,0.5,0.9,1.1,0.9c0.5,0,0.8-0.4,1-0.9c0.2-0.6,0.3-1.3,0.5-1.9
			c0.5-1.6,1.7-2.4,3-2s2.1,2.3,1.7,3.7c-0.2,0.6-0.7,0.6-1.3,0.8c0.2-0.8,0.5-1.4,0.3-2.2c-0.1-0.6-0.4-1.1-1.1-1.2
			s-1.1,0.4-1.3,0.9c-0.2,0.6-0.4,1.3-0.5,1.9c-0.5,1.6-1.6,2.3-2.8,1.9s-2-2.1-1.7-3.4C15.4,106.7,15.9,106.7,16.5,106.5z"/>
		<path class="st1" d="M19,83.2c0.8-0.7,1.3-1.2,1.5-2c0.1-0.6,0-1.2-0.5-1.5c-0.6-0.4-1.1-0.1-1.5,0.3c-0.6,0.6-1,1.2-1.6,1.8
			c-1,1-2.3,1.1-3.2,0.2c-0.8-0.9-0.8-3,0.1-3.8c0.4-0.3,0.8-0.1,1.3,0c-0.5,0.7-1,1.3-1,2.1c0,0.4,0.1,0.9,0.5,1.1
			c0.5,0.2,0.9,0.1,1.3-0.3c0.5-0.5,0.9-1.1,1.4-1.7c1.1-1.2,2.6-1.4,3.6-0.4c0.9,0.9,0.8,3.2-0.2,4C20.2,83.4,19.8,83.1,19,83.2z"
			/>
		<path class="st1" d="M139.5,118.5c-0.9,0.3-1.7,0.6-2.1,1.4c-0.3,0.5-0.3,1,0,1.4c0.4,0.5,0.9,0.5,1.4,0.3c0.7-0.3,1.3-0.6,2-1
			c1.5-0.7,2.7-0.4,3.3,0.9c0.5,1.1-0.3,3-1.4,3.5c-0.6,0.3-0.8-0.2-1.3-0.4c0.7-0.5,1.4-0.8,1.7-1.6c0.2-0.5,0.3-0.9-0.1-1.3
			c-0.3-0.3-0.8-0.4-1.2-0.2c-0.7,0.3-1.3,0.7-2,1c-1.5,0.7-3,0.2-3.5-1s0.5-3.2,1.8-3.6C138.7,117.8,139,118.2,139.5,118.5z"/>
		<path class="st1" d="M143.2,67.7c-0.4,1-0.7,1.8-0.2,2.6c0.2,0.4,0.5,0.8,1.1,0.8c0.5,0,0.8-0.3,1-0.7c0.4-0.7,0.4-1.5,0.7-2.2
			c0.5-1.6,1.5-2.3,2.8-1.9c1.2,0.4,2,2.1,1.7,3.4c-0.2,0.6-0.7,0.5-1.2,0.8c0-0.8,0.3-1.6-0.1-2.3c-0.2-0.4-0.5-0.8-1-0.8
			s-0.9,0.4-1,0.8c-0.2,0.7-0.3,1.4-0.5,2c-0.4,1.6-1.7,2.4-3,2s-2.1-2.4-1.6-3.7C142,67.8,142.6,67.9,143.2,67.7z"/>
		<path class="st0" d="M90.8,101.3c-0.7,0.7-1.1,1.4-0.7,2.3c0.1,0.2,0.2,0.3-0.1,0.5c-0.6,0.4-0.9,1.1-1,1.6
			c-0.3,1.7-1.4,1.3-2.5,1.3c-1.2-0.1-0.9-1.2-1.2-1.9c-0.3-0.7,0.2-0.9,0.9-1c0.5-0.1,1.1-0.7,1.4-1.2c0.5-0.8,1.4-1.2,1.9-2
			C90.2,100,90.2,101.4,90.8,101.3z"/>
		<path class="st1" d="M146.8,59.9c0,0.3-0.3,0.3-0.5,0.4c-0.3,0.1-0.4,0-0.6-0.2c-0.2-0.4-0.4-0.8-0.6-1.2
			c-0.6-1.2-1.4-1.3-2.4-0.4c-0.3,0.3-0.1,0.5,0,0.7c0.3,0.7,0.7,1.3,1,2c0.2,0.4,0,0.5-0.3,0.7s-0.5,0.1-0.6-0.2
			c-0.3-0.7-0.7-1.3-1-2c-0.2-0.5-0.5-0.5-0.9-0.3c-0.7,0.4-1.4,0.8-2.2,1.1c-0.4,0.2-0.7,0.4-1-0.2c-0.3-0.5,0-0.7,0.4-0.9
			c2-1,4.1-2.1,6.1-3.1c0.3-0.2,0.6-0.4,0.9,0.1c0.5,1.1,1.1,2.1,1.6,3.2C146.7,59.7,146.7,59.8,146.8,59.9z"/>
		<path class="st1" d="M15.2,104.2c0.1,0.5,0,0.6-0.3,0.7c-0.4,0.1-0.6,0-0.7-0.4c-0.4-2-0.7-4-1.1-5.9c-0.1-0.3,0-0.5,0.3-0.6
			s0.6-0.1,0.7,0.4c0,0.3,0.1,0.5,0.1,0.8c0.3,1.6,0.3,1.6,2,1.3c1.5-0.3,3-0.6,4.6-0.9c0.4-0.1,0.9-0.3,1,0.5
			c0.1,0.7-0.4,0.6-0.8,0.7c-1.8,0.3-3.6,0.7-5.4,1c-0.8,0.1-1,0.4-0.8,1.2C15.2,103.4,15.2,103.9,15.2,104.2z"/>
		<path class="st1" d="M139,116.9c-0.3-0.2-0.8-0.1-0.6-0.8c0.6-1.2,1.1-2.5,1.7-3.7c0.2-0.4,0.4-0.4,0.7-0.2c2.1,1,4.3,2,6.5,3
			c0.4,0.2,0.6,0.3,0.4,0.8c-0.2,0.5-0.4,0.5-0.9,0.3c-1.7-0.8-3.4-1.5-5.1-2.4c-0.7-0.4-1.1-0.3-1.4,0.5c-0.2,0.7-0.6,1.3-0.9,2
			C139.4,116.7,139.3,116.9,139,116.9z"/>
		<path class="st1" d="M41.3,136.5c0,1.1-1,2.1-2.1,2c-1.2,0-2.2-1.1-2.1-2.3c0.1-1.1,1-2,2.2-2C40.4,134.3,41.4,135.3,41.3,136.5z"
			/>
		<path class="st1" d="M69.6,29.5c-0.6,0.1-0.7-0.1-0.8-0.4c-0.4-2.3-0.9-4.6-1.4-7c-0.1-0.5,0.1-0.7,0.5-0.8
			c0.5-0.1,0.6,0.2,0.6,0.6c0.4,1.9,0.8,3.7,1.1,5.6c0.1,0.7,0.4,0.9,1.1,0.7c0.8-0.2,1.5-0.3,2.3-0.4c0.3-0.1,0.6,0,0.7,0.4
			s-0.1,0.6-0.5,0.6C72,29,70.7,29.3,69.6,29.5z"/>
		<path class="st1" d="M131.6,38.8c-0.3,0.4-0.5,0.6-0.7,0.8c-1.2,1.3-2.5,2.6-3.7,3.8c-0.6,0.6-0.6,1,0.1,1.6
			c0.6,0.5,1.1,1,1.6,1.5c0.3,0.3,0.3,0.5,0,0.8s-0.5,0.3-0.8,0c-0.9-0.9-1.9-1.8-2.8-2.7c-0.3-0.3-0.2-0.5,0-0.8
			c1.7-1.7,3.4-3.5,5-5.2c0.2-0.2,0.3-0.4,0.6-0.2C131.1,38.4,131.3,38.6,131.6,38.8z"/>
		<path class="st1" d="M126.5,134.3c1.1,0,2.1,0.9,2.2,2c0,1.1-0.9,2.2-2.1,2.2c-1.2,0.1-2.2-0.9-2.2-2.1
			C124.4,135.3,125.3,134.3,126.5,134.3z"/>
		<path class="st0" d="M99.4,77.7c1.8,0.8,1.3,2.8,2.2,4.2c-0.8,0.2-1.6,0.2-2.2,0.8c-0.3,0.3-0.9,0.2-1.4,0.2
			c-0.8,0.1-0.8,0-0.8,0.9c0,0.2,0.1,0.5-0.2,0.6c-0.4,0.1-0.6-0.2-0.5-0.4c0-0.5-0.8-0.6-0.4-1.2c0.5-0.5,0.7-1.5,1.6-1.3
			s1.2-0.7,1.8-1c0.8-0.4,0.3-1.4-0.1-2.2C99.3,78.1,99.1,77.9,99.4,77.7z"/>
		<path class="st0" d="M81.4,103.7c-0.2,0.1-0.2,0.3-0.1,0.4c0.5,0.5,1.1,1,1.1,1.7c0.5-0.1,0.2,1.1,1,0.6c0.2-0.1,0.4,0.3,0.2,0.5
			c-0.5,0.5,0.2,1.5-0.7,1.7c-0.7,0.1-1-0.7-1.5-1.1c-0.7-0.6-0.8-1.5-1.2-2.2c-0.7-1.3-1.6-2.3-2.7-3.4c1.4-0.2,1.8,0.9,2.6,1.5
			C80.6,103.5,80.8,104.1,81.4,103.7C81.4,103.8,81.4,103.7,81.4,103.7z"/>
		<path class="st1" d="M128.4,36.4c-0.1,0.1-0.2,0.3-0.3,0.4c-1.5,1.8-2.9,3.5-4.4,5.3c-0.2,0.3-0.4,0.7-0.9,0.3s-0.3-0.7,0-1
			c1.5-1.8,2.9-3.5,4.4-5.3c0.2-0.2,0.3-0.6,0.7-0.3C128.1,35.9,128.4,36,128.4,36.4z"/>
		<path class="st1" d="M14.7,74.2c2.3,0.5,4.7,1,7,1.5c0.5,0.1,0.5,0.3,0.4,0.7c-0.1,0.5-0.3,0.5-0.7,0.4c-2.3-0.5-4.6-1-6.9-1.5
			c-0.4-0.1-0.7-0.2-0.5-0.7C14.1,74.4,14.3,74.1,14.7,74.2z"/>
		<path class="st1" d="M36.2,37.2c0.3,0,0.4,0.2,0.6,0.4c1.5,1.7,3.1,3.5,4.6,5.2c0.3,0.4,0.4,0.6,0,0.9c-0.4,0.3-0.6,0.2-0.8-0.1
			c-1.6-1.8-3.1-3.6-4.7-5.3C35.3,37.7,35.9,37.5,36.2,37.2z"/>
		<path class="st0" d="M101.3,102c-0.5,0.7-0.8,1.3-1.3,1.9c-0.2,0.2-0.4,1.6-1,0.1c-0.1-0.3-0.8,0.2-1.1,0
			c-0.3-0.2-0.7,0.5-0.8-0.1c0-0.4-0.7-0.5-0.2-0.8c0.4-0.2,0.8-0.4,1.2,0.2c0.3,0.5,0.6,0,0.8-0.2
			C99.5,102.4,100.2,101.9,101.3,102z"/>
		<path class="st0" d="M90.3,107.2c-0.3-1.9-0.1-2.2,2.2-2.6c-0.8,0.3-1,0.9-0.7,1.6c0.1,0.3,0.2,0.6-0.1,0.7
			c-0.3,0.1-0.3-0.2-0.5-0.4c-0.3-0.5-0.5-0.4-0.6,0.1C90.5,106.9,90.6,107.1,90.3,107.2z"/>
		<path class="st0" d="M87.2,109.9c-1.1,0.3-2,0-2.9-0.1c-0.4,0-0.7-0.1-0.8-0.5c0-0.1,0-0.2,0.1-0.3c0.3-0.2,0.6-0.2,0.9,0
			c0.5,0.3,0.8,0.3,1.4,0.1C86.3,108.9,86.9,109.1,87.2,109.9z"/>
		<path class="st0" d="M98.9,76.9c-1.2-0.2-0.1-1.3-0.8-1.8c0.9,0,1.4,0.7,2,0.9c0.1,0,0.6,0.3,0.3,0.6c-0.2,0.2-0.4,0.7-0.8,0.3
			C99.4,76.6,99.1,76.2,98.9,76.9L98.9,76.9z"/>
		<path class="st0" d="M92.5,93.2c0.7,0.2,0.8,0.6,0.6,1.1c-0.1,0.3-0.5,0.5-0.4,0.9c0.1,0.3,0.2,0.7-0.2,0.8
			c-0.5,0.2-0.4-0.4-0.6-0.6c-0.5-0.7,0.1-1.4,0.2-2.1C92.2,93.2,92.4,93.1,92.5,93.2z"/>
		<path class="st0" d="M93.2,99.4c0.5-0.5,1.4-0.4,1.8-1.1c0,0,0.2,0,0.3,0.1c0.5,0.8-0.3,1.2-0.6,1.7c-0.3,0.4-0.6,0.2-0.7-0.4
			C93.9,99.2,93.4,99.7,93.2,99.4z"/>
		<path class="st0" d="M92.4,88.4c0.1,1,0,1.6-0.4,2.2C91.3,89.8,91.6,89.2,92.4,88.4z"/>
		<path class="st0" d="M93.4,98.5c0-0.4-0.2-0.7,0.1-0.9c0.4-0.2,0.5,0.3,0.8,0.4C93.9,98,93.8,98.4,93.4,98.5z"/>
		<path class="st0" d="M92.6,96.6c-0.1,0.1-0.1,0.1-0.2,0.2c0-0.1-0.1-0.2-0.1-0.3l0.1-0.1C92.5,96.4,92.6,96.5,92.6,96.6z"/>
		<path class="st1" d="M35.2,107.7L35.2,107.7c0-0.2,0.1-0.2,0.1-0.1C35.2,107.7,35.2,107.7,35.2,107.7z"/>
		<path class="st1" d="M38.5,113.3C38.4,113.3,38.4,113.3,38.5,113.3C38.4,113.2,38.4,113.2,38.5,113.3
			C38.4,113.3,38.4,113.3,38.5,113.3C38.4,113.3,38.5,113.3,38.5,113.3z"/>
		<path class="st1" d="M107.3,127.3C107.3,127.4,107.3,127.4,107.3,127.3C107.2,127.4,107.2,127.4,107.3,127.3
			C107.2,127.4,107.2,127.4,107.3,127.3L107.3,127.3z"/>
		<path class="st0" d="M98.9,76.9L98.9,76.9L98.9,76.9C98.9,77,98.9,77,98.9,76.9L98.9,76.9z"/>
		<path class="st1" d="M57.6,48.3C57.6,48.3,57.6,48.2,57.6,48.3C57.7,48.2,57.7,48.2,57.6,48.3C57.6,48.2,57.6,48.2,57.6,48.3
			C57.6,48.2,57.6,48.3,57.6,48.3z"/>
	</g>
</g>
</svg>
