<?xml version="1.0" encoding="utf-8"?>
<!-- Generator: Adobe Illustrator 26.0.1, SVG Export Plug-In . SVG Version: 6.00 Build 0)  -->
<svg version="1.0" id="layer" xmlns="http://www.w3.org/2000/svg" xmlns:xlink="http://www.w3.org/1999/xlink" x="0px" y="0px"
	 viewBox="0 0 167.8 167.8" style="enable-background:new 0 0 167.8 167.8;" xml:space="preserve">
<style type="text/css">
	.st0{fill:#42BA85;}
</style>
<g>
	<path class="st0" d="M136.5,118.3l-0.4-1.8l0.4-0.6l0.6,1.5L136.5,118.3z M131.8,115.8l1.4-2.3l-2.2-1.3l-1.5,2.6l-0.6-0.4l2-3.4
		l6,3.6l-1.9,3.2l-0.6-0.4l1.5-2.5l-1.9-1.1l-1.4,2.3L131.8,115.8z"/>
	<path class="st0" d="M124.4,120.8c0.1-0.4,0.4-1,0.9-1.7c1.2-1.5,3.1-1.9,4.9-0.5c1.7,1.4,2,3.4,0.6,5.1c-0.5,0.7-1,1-1.3,1.1
		l-0.4-0.6c0.3-0.2,0.7-0.5,1.1-0.9c1-1.3,0.9-2.8-0.6-3.9c-1.4-1.1-2.8-1-3.9,0.4c-0.3,0.4-0.6,0.9-0.7,1.3L124.4,120.8z"/>
	<path class="st0" d="M120.7,124.1c1.3-1.3,3.2-1.1,4.7,0.4c1.5,1.6,1.6,3.6,0.2,4.9c-1.4,1.3-3.3,1.1-4.7-0.4
		C119.2,127.3,119.4,125.4,120.7,124.1L120.7,124.1z M121.2,124.7c-1,1-0.7,2.5,0.4,3.6c1,1,2.5,1.5,3.6,0.5s0.7-2.6-0.4-3.6
		C123.7,124.1,122.2,123.7,121.2,124.7L121.2,124.7z"/>
	<path class="st0" d="M120.6,133.6l-0.7,0.5l-3.7-5l-2.4,1.8l-0.4-0.6l3.1-2.3L120.6,133.6z"/>
	<path class="st0" d="M109.9,136.1l2.3-1.3l-1.2-2.2l-2.6,1.5l-0.4-0.7l3.4-1.9l3.4,6.1l-3.3,1.9l-0.4-0.7l2.5-1.4l-1.1-1.9
		l-2.3,1.3L109.9,136.1z"/>
	<path class="st0" d="M104.8,142.4c-0.5,0.3-1.1,0.5-1.8,0.7c-1.2,0.4-2.2,0.4-3,0.1c-0.8-0.3-1.4-1-1.7-2.1
		c-0.4-1.1-0.3-2.1,0.1-2.9c0.4-0.8,1.3-1.5,2.6-1.9c0.6-0.2,1.1-0.3,1.6-0.4L104.8,142.4z M102,136.8c-0.2,0-0.5,0.1-0.9,0.2
		c-1.8,0.6-2.5,2-1.9,3.7c0.5,1.6,1.7,2.3,3.5,1.7c0.4-0.1,0.8-0.3,1-0.4L102,136.8z"/>
	<path class="st0" d="M95.1,145.2l-0.7-4.1c-0.3-1.5-1.1-2.1-2-1.9c-1,0.2-1.6,1-1.3,2.5l0.7,4.1l-0.9,0.2l-0.7-4
		c-0.4-2.1,0.6-3.2,2.1-3.4c1.4-0.2,2.6,0.4,3,2.5l0.7,4L95.1,145.2z"/>
	<path class="st0" d="M77.3,142.2c0,1,0,2.2-0.1,3l0,0c0.3-0.8,0.6-1.7,1-2.6l1.4-3.3h0.7l0.9,3.4c0.3,1,0.5,1.9,0.6,2.8l0,0
		c0.1-0.9,0.2-2,0.3-3.1l0.4-3h0.9l-0.9,6.9l-1.1-0.1l-1-3.4c-0.2-0.9-0.4-1.7-0.6-2.4l0,0c-0.2,0.7-0.5,1.4-0.9,2.3l-1.4,3.3
		l-1.1-0.1v-7l0.9,0.1L77.3,142.2z"/>
	<path class="st0" d="M71.2,138c1.8,0.4,2.7,2.1,2.3,4.1c-0.5,2.2-2.1,3.3-4,2.9c-1.9-0.4-2.7-2.1-2.3-4.1
		C67.7,138.5,69.4,137.6,71.2,138L71.2,138z M71,138.7c-1.4-0.3-2.5,0.8-2.8,2.3c-0.3,1.3,0.1,2.9,1.5,3.3c1.5,0.3,2.5-0.9,2.8-2.3
		C72.8,140.5,72.4,139,71,138.7L71,138.7z"/>
	<path class="st0" d="M65.6,136.6l-2.6,6.5l-0.9-0.4l-0.8-4.1c-0.2-0.9-0.3-1.8-0.3-2.6l0,0c-0.3,0.9-0.6,1.7-0.9,2.7l-1.1,2.7
		l-0.8-0.3l2.6-6.5l0.8,0.3l0.8,4.1c0.2,0.9,0.3,1.8,0.4,2.6l0,0c0.3-0.8,0.6-1.6,1-2.7l1.1-2.8L65.6,136.6z"/>
	<path class="st0" d="M54.7,139.4c-0.5-0.2-1.1-0.5-1.7-0.8c-1.1-0.6-1.8-1.4-2-2.2c-0.3-0.8-0.2-1.7,0.4-2.7c0.6-1,1.4-1.6,2.2-1.8
		c0.9-0.2,2,0,3.2,0.7c0.6,0.3,1,0.6,1.4,0.9L54.7,139.4z M57,133.6c-0.2-0.2-0.5-0.3-0.8-0.5c-1.7-1-3.1-0.6-4.1,1.1
		c-0.8,1.4-0.6,2.8,1.1,3.7c0.4,0.2,0.7,0.4,1,0.4L57,133.6z"/>
	<path class="st0" d="M46.4,129.5l2.1,1.7l1.5-2l-2.4-1.9l0.5-0.6l3.1,2.4l-4.3,5.5l-3-2.3l0.5-0.6l2.3,1.8l1.4-1.7l-2.1-1.7
		L46.4,129.5z"/>
	<path class="st0" d="M41.6,123.8c0.4,0.4,0.4,1.1-0.1,1.5c-0.4,0.4-1.1,0.4-1.5-0.1c-0.4-0.4-0.4-1.1,0.1-1.5
		C40.5,123.3,41.2,123.3,41.6,123.8L41.6,123.8z"/>
	<path class="st0" d="M36.1,112.7c0.3,0.2,0.8,0.7,1.3,1.4c1.1,1.6,0.8,3.6-1.1,4.8c-1.8,1.2-3.9,0.8-5.1-1
		c-0.5-0.7-0.6-1.3-0.6-1.6l0.7-0.2c0,0.4,0.2,0.8,0.5,1.3c0.9,1.4,2.4,1.7,3.9,0.7c1.4-0.9,1.8-2.4,0.9-3.8c-0.3-0.5-0.7-0.9-1-1.1
		L36.1,112.7z"/>
	<path class="st0" d="M34.1,108.2c0.8,1.7,0,3.4-1.9,4.3c-2,0.9-3.9,0.3-4.7-1.4c-0.8-1.7,0-3.5,1.9-4.3
		C31.6,105.8,33.4,106.6,34.1,108.2L34.1,108.2z M33.5,108.5c-0.6-1.3-2.1-1.5-3.6-0.8c-1.3,0.6-2.3,1.9-1.6,3.2
		c0.6,1.4,2.2,1.4,3.6,0.8C33.2,111.1,34.1,109.8,33.5,108.5L33.5,108.5z"/>
	<path class="st0" d="M25.2,105.1l-0.3-0.9l5.9-1.9L30,99.5l0.7-0.2l1.2,3.7L25.2,105.1z"/>
	<path class="st0" d="M26.3,94.1l0.5,2.7l2.5-0.5l-0.6-3l0.7-0.1l0.7,3.9l-6.8,1.3l-0.7-3.7l0.7-0.1l0.5,2.8L26,97l-0.5-2.7
		L26.3,94.1z"/>
	<path class="st0" d="M28.5,85.5c0.2,0.4,0.4,1.2,0.5,2.1c0.1,1.1-0.2,1.9-0.8,2.7c-0.5,0.6-1.5,1.1-2.5,1.1
		c-2.1,0.1-3.7-1.2-3.8-3.6c0-0.8,0.1-1.5,0.2-1.8l0.7,0.2c-0.2,0.4-0.3,0.9-0.2,1.6c0.1,1.7,1.2,2.7,2.9,2.6
		c1.8-0.1,2.8-1.2,2.7-2.8c0-0.6-0.1-1-0.2-1.2l-2.1,0.1l0.1,1.4h-0.7l-0.1-2.3L28.5,85.5z"/>
	<path class="st0" d="M22,81.5l7,0.4v0.9l-7-0.4V81.5z"/>
	<path class="st0" d="M29.8,76.4c-0.3,1.8-1.9,2.9-4,2.5c-2.2-0.3-3.4-1.9-3.1-3.8s1.9-2.9,4-2.5C29,73,30,74.6,29.8,76.4L29.8,76.4
		z M29,76.2c0.2-1.4-0.9-2.4-2.5-2.7c-1.4-0.2-2.9,0.3-3.1,1.7c-0.2,1.5,1,2.4,2.5,2.7C27.3,78.2,28.8,77.6,29,76.2L29,76.2z"/>
	<path class="st0" d="M25.4,64.9c0.1-0.5,0.3-1.2,0.6-1.8c0.5-1.2,1.1-1.9,1.8-2.3c0.8-0.4,1.7-0.4,2.7,0c1.1,0.4,1.8,1.1,2.1,1.9
		c0.4,0.9,0.3,2-0.2,3.2c-0.2,0.6-0.5,1.1-0.7,1.5L25.4,64.9z M31.5,66.3c0.1-0.2,0.2-0.5,0.4-0.8c0.7-1.8,0.1-3.2-1.6-3.9
		c-1.5-0.6-2.8-0.1-3.5,1.6c-0.2,0.4-0.3,0.8-0.3,1L31.5,66.3z"/>
	<path class="st0" d="M34,55.2l-1.3,2.3l2.2,1.2l1.5-2.6l0.7,0.4l-2,3.5L29,56.5l1.9-3.3l0.7,0.4l-1.4,2.5l1.9,1.1l1.3-2.3L34,55.2z
		"/>
	<path class="st0" d="M32.8,50.4l0.5-0.7l5,3.7l1.8-2.4l0.6,0.4l-2.3,3.1L32.8,50.4z"/>
	<path class="st0" d="M46.9,40.8c-0.7-0.7-1.5-1.5-2.1-2.2l0,0c0.4,0.8,0.7,1.6,1.1,2.6l1.3,3.3L46.7,45l-3.1-1.7
		c-0.9-0.5-1.7-1-2.4-1.5l0,0c0.6,0.7,1.3,1.6,1.9,2.4l1.8,2.4l-0.6,0.6L40,41.7l0.9-0.8l3.1,1.7c0.8,0.5,1.5,0.9,2.1,1.3l0,0
		c-0.3-0.6-0.7-1.4-1-2.2l-1.3-3.3l0.9-0.8l5,4.9L49,43L46.9,40.8z"/>
	<path class="st0" d="M48.9,34.5l2.2,3.5c0.8,1.3,1.8,1.5,2.6,1c0.9-0.5,1.1-1.5,0.2-2.8l-2.2-3.5l0.8-0.5l2.2,3.4
		c1.1,1.8,0.7,3.1-0.6,4c-1.2,0.8-2.5,0.7-3.7-1.2L48.1,35L48.9,34.5z"/>
	<path class="st0" d="M58.7,36.7l-2.8-6.4l0.9-0.4l3.5,2.3c0.8,0.5,1.5,1,2.1,1.6l0,0c-0.5-0.8-0.8-1.6-1.3-2.6l-1.2-2.7l0.8-0.3
		l2.8,6.4L62.7,35l-3.5-2.3c-0.8-0.5-1.5-1-2.1-1.6l0,0c0.4,0.8,0.8,1.5,1.2,2.6l1.2,2.7L58.7,36.7z"/>
	<path class="st0" d="M64.4,27c0.5-0.2,1.1-0.5,1.8-0.7c1.2-0.3,2.2-0.3,2.9,0.1c0.8,0.4,1.3,1.1,1.6,2.2c0.3,1.1,0.2,2.1-0.3,2.9
		s-1.4,1.4-2.7,1.8c-0.6,0.2-1.1,0.3-1.6,0.4L64.4,27z M66.9,32.7c0.2,0,0.6-0.1,0.9-0.2c1.9-0.5,2.6-1.8,2.1-3.6
		c-0.4-1.6-1.6-2.3-3.4-1.8c-0.4,0.1-0.8,0.3-1,0.4L66.9,32.7z"/>
	<path class="st0" d="M76.9,31.5c-1.8,0.2-3.3-1.1-3.5-3.2c-0.3-2.2,0.9-3.8,2.8-4s3.3,1.1,3.5,3.1C79.9,29.8,78.6,31.3,76.9,31.5
		L76.9,31.5z M76.8,30.8c1.4-0.2,2.1-1.6,1.9-3.1c-0.2-1.4-1-2.7-2.5-2.6c-1.5,0.2-2.1,1.6-1.9,3.1C74.5,29.7,75.4,30.9,76.8,30.8
		L76.8,30.8z"/>
	<path class="st0" d="M86.9,28.7c-0.6,0-1-0.5-1-1.2c0-0.6,0.6-1,1.2-1s1.1,0.5,1,1.2C88,28.3,87.5,28.7,86.9,28.7L86.9,28.7z"/>
	<path class="st0" d="M94.8,32.2l0.1-7.2l0.9,0.2l-0.1,3.6c0,0.9-0.1,1.8-0.1,2.5l0,0c0.3-0.6,0.7-1.4,1.2-2.2l1.8-3.2l0.9,0.2
		l-0.1,3.6c0,0.9-0.1,1.7-0.1,2.4l0,0c0.3-0.7,0.7-1.4,1.2-2.2l1.8-3.2l0.9,0.2l-3.7,6.2l-0.9-0.2l0.1-3.7c0-0.9,0.1-1.6,0.1-2.3
		l0,0c-0.3,0.7-0.6,1.3-1.1,2.1l-1.9,3.3L94.8,32.2z"/>
	<path class="st0" d="M105.7,36.1c-1.7-0.8-2.2-2.6-1.4-4.5c0.9-2,2.8-2.8,4.5-2s2.2,2.6,1.4,4.5C109.2,36.3,107.3,36.8,105.7,36.1
		L105.7,36.1z M106.1,35.4c1.3,0.6,2.6-0.3,3.2-1.7c0.6-1.3,0.5-2.9-0.8-3.5c-1.4-0.6-2.6,0.3-3.3,1.7
		C104.6,33.3,104.8,34.8,106.1,35.4L106.1,35.4z"/>
	<path class="st0" d="M114.6,32.8c0.4,0.2,1,0.5,1.5,0.8c0.8,0.5,1.2,1,1.4,1.6c0.1,0.4,0,0.9-0.3,1.4c-0.5,0.8-1.3,1-2.1,0.8l0,0
		c0.3,0.4,0.3,1,0.1,1.7c-0.3,0.9-0.6,1.6-0.6,1.9l-0.8-0.5c0-0.2,0.2-0.8,0.5-1.6c0.3-0.9,0.2-1.4-0.4-1.9l-0.7-0.5l-1.6,2.5
		l-0.8-0.5L114.6,32.8z M113.6,36l0.8,0.5c0.8,0.5,1.6,0.4,2-0.3c0.5-0.8,0.2-1.4-0.6-2c-0.4-0.2-0.6-0.4-0.8-0.4L113.6,36z"/>
	<path class="st0" d="M120.9,37.1l0.7,0.6l-4,4.8l2.3,1.9l-0.5,0.6l-3-2.5L120.9,37.1z"/>
	<path class="st0" d="M126.2,41.9c0.4,0.4,0.9,0.8,1.4,1.3c0.9,1,1.3,1.8,1.3,2.7c0,0.8-0.3,1.7-1.2,2.4c-0.8,0.8-1.8,1.1-2.7,1.1
		c-0.9,0-1.9-0.6-2.8-1.6c-0.4-0.5-0.8-0.9-1.1-1.3L126.2,41.9z M122.3,46.7c0.1,0.2,0.3,0.4,0.6,0.7c1.3,1.4,2.8,1.5,4.2,0.2
		c1.2-1.1,1.4-2.5,0.1-3.9c-0.3-0.3-0.6-0.6-0.8-0.7L122.3,46.7z"/>
	<path class="st0" d="M129.4,54.9c0,0.5,0.1,1.1,0.4,1.6c0.5,0.8,1.2,1,1.8,0.6c0.5-0.3,0.7-0.9,0.5-1.8c-0.2-1.2-0.1-2.1,0.7-2.6
		c0.9-0.6,2.1-0.2,2.8,0.9c0.4,0.6,0.5,1.1,0.5,1.5l-0.8,0.2c0-0.3-0.1-0.8-0.4-1.3c-0.5-0.8-1.2-0.8-1.6-0.6
		c-0.6,0.3-0.6,0.9-0.4,1.9c0.2,1.2,0,2-0.8,2.6c-0.9,0.6-2.1,0.4-3-1c-0.3-0.6-0.6-1.3-0.5-1.8L129.4,54.9z"/>
	<path class="st0" d="M133.9,65.4c-0.3-0.2-0.7-0.8-1.1-1.5c-0.8-1.8-0.3-3.6,1.8-4.6c2-0.9,3.9-0.1,4.8,1.8
		c0.4,0.8,0.4,1.4,0.4,1.6l-0.8,0.1c0-0.4-0.1-0.9-0.3-1.4c-0.7-1.5-2.1-2.1-3.7-1.3c-1.6,0.7-2.2,2-1.5,3.6c0.2,0.5,0.6,1,0.9,1.2
		L133.9,65.4z"/>
	<path class="st0" d="M141.5,66.8l-2.8,0.8l0.9,3.2l2.8-0.8l0.3,0.9l-6.7,1.9l-0.3-0.9l3.1-0.9l-0.9-3.2l-3.1,0.9l-0.3-0.9l6.7-1.9
		L141.5,66.8z"/>
	<path class="st0" d="M136.8,78.3c-0.2-1.8,1-3.3,3.1-3.6c2.2-0.3,3.8,0.9,4,2.7c0.2,1.9-1,3.3-3.1,3.6
		C138.4,81.4,137,80.1,136.8,78.3L136.8,78.3z M137.5,78.3c0.2,1.4,1.6,2,3.2,1.8c1.4-0.2,2.7-1.1,2.5-2.6s-1.7-2-3.2-1.9
		C138.5,75.9,137.3,76.9,137.5,78.3L137.5,78.3z"/>
	<path class="st0" d="M137.2,86.7c0.1-1.8,1.5-3.1,3.6-3c2.2,0.1,3.6,1.5,3.6,3.3c-0.1,1.9-1.5,3.1-3.6,3
		C138.4,90,137.1,88.5,137.2,86.7L137.2,86.7z M137.9,86.8c0,1.4,1.2,2.3,2.8,2.3c1.4,0,2.9-0.6,2.9-2.1s-1.3-2.3-2.8-2.3
		C139.3,84.6,137.9,85.3,137.9,86.8L137.9,86.8z"/>
	<path class="st0" d="M143.7,93.5l-0.1,0.9l-6.1-1l-0.5,2.9l-0.7-0.1l0.6-3.8L143.7,93.5z"/>
	<path class="st0" d="M136.5,104.1c0.2-0.6,0.8-0.9,1.4-0.7c0.6,0.2,0.9,0.8,0.7,1.4s-0.8,0.9-1.4,0.7
		C136.6,105.3,136.3,104.7,136.5,104.1L136.5,104.1z"/>
	<g>
		<path class="st0" d="M131.4,85c0,26.8-21.7,48.5-48.5,48.5c-22.8,0-41.8-15.7-47-36.8c9.5-0.1,18.5-2.2,26.6-5.9V71.9
			c0-1.5-0.5-2.6-1.6-3.3c-1-0.7-2.9-1-5.5-1v-1.7c3.5-0.1,6.7-0.3,9.7-0.6c2.9-0.3,5.5-0.7,7.6-1.3v27.4c0,1.6,0,3.2,0,5.1
			c0,1.8,0,3.5-0.1,5.3c-0.1,1.7-0.1,3.3-0.3,4.8c-0.1,1.5-0.3,2.8-0.4,3.8c2.9,1.7,6.1,3,9.6,4.1s6.8,1.6,9.8,1.6
			c2.6,0,5.1-0.4,7.5-1.2c2.4-0.8,4.6-1.9,6.4-3.4c1.9-1.5,3.4-3.3,4.5-5.5c1.2-2.2,1.7-4.7,1.7-7.4c0-2.5-0.4-4.9-1.3-7
			s-2.1-4-3.6-5.5c-1.6-1.6-3.4-2.8-5.5-3.7c-2.1-0.9-4.5-1.3-7-1.3c-1.9,0-3.8,0.3-5.8,1s-3.8,1.5-5.4,2.5v-8.2
			c8.7-9.1,14.9-20.7,17.2-33.7c-10.8-4.6-23.3-5.2-35.2-0.7C51.6,47,42,57.2,37.4,69.4C42,56.2,52,45.1,66,39.8
			c11.7-4.4,23.9-4,34.5,0.1l0,0C118.6,46.9,131.4,64.4,131.4,85z M84.3,109.8c1.3,2.3,3.6,3.4,6.7,3.4c3.2,0,5.4-1.1,6.7-3.4
			c1.3-2.3,2-5.9,2-10.7c0-4.9-0.7-8.5-2-10.7C96.4,86.1,94.1,85,91,85c-3.2,0-5.4,1.1-6.7,3.4c-1.3,2.3-2,5.9-2,10.7
			C82.3,104,83,107.6,84.3,109.8z M71.7,58.4c1.3-1.3,2-3,2-4.9c0-2-0.7-3.6-2-4.9c-1.3-1.3-3-2-4.9-2s-3.5,0.7-4.9,2
			c-1.3,1.3-2,3-2,4.9c0,2,0.7,3.6,2,4.9c1.3,1.3,3,2,4.9,2S70.4,59.7,71.7,58.4z"/>
	</g>
	<g>
		<path class="st0" d="M132.4,41c10.4,11.7,16.8,27.1,16.8,44c0,36.5-29.6,66.2-66.2,66.2c-4.2,0-8.3-0.4-12.3-1.1
			c5.3,1.4,10.8,2.1,16.5,2.1c0.1,0,0.2,0,0.3,0c35-2.3,62.7-31.5,62.7-67.1c0-11-2.7-21.4-7.4-30.6C140,49.5,136.4,45,132.4,41z"/>
		<path class="st0" d="M16.8,85c0-32.8,23.8-60,55.1-65.2c4.9-1.1,10-1.7,15.3-1.7c1.2,0,2.5,0,3.7,0.1c-2.6-0.3-5.2-0.5-7.9-0.5
			c-37.2,0-67.3,30.1-67.3,67.3c0,15.5,5.2,29.8,14.1,41.2c-3.5-5.2-6.3-10.8-8.3-16.8C18.4,101.8,16.8,93.6,16.8,85z"/>
	</g>
	<path class="st0" d="M152.6,38.6c0,2.2-1.7,4-4,4c-2.2,0-4-1.7-4-4c0-2.2,1.7-4,4-4C150.9,34.7,152.6,36.4,152.6,38.6z M145.3,38.6
		c0,1.9,1.4,3.4,3.4,3.4c1.9,0,3.4-1.5,3.4-3.4s-1.4-3.4-3.4-3.4C146.7,35.2,145.3,36.7,145.3,38.6z M147.7,40.9h-0.6v-4.6h1.8
		c1,0,1.5,0.4,1.5,1.3c0,0.8-0.5,1.2-1.2,1.3l1.4,2H150l-1.3-2h-1V40.9z M148.5,38.4c0.7,0,1.4,0,1.4-0.8c0-0.6-0.5-0.8-1.1-0.8h-1
		v1.6H148.5z"/>
</g>
</svg>
