<?xml version="1.0" encoding="utf-8"?>
<!-- Generator: Adobe Illustrator 26.0.1, SVG Export Plug-In . SVG Version: 6.00 Build 0)  -->
<svg version="1.0" id="Layer_1" xmlns="http://www.w3.org/2000/svg" xmlns:xlink="http://www.w3.org/1999/xlink" x="0px" y="0px"
	 viewBox="0 0 115.9 115.3" style="enable-background:new 0 0 115.9 115.3;" xml:space="preserve">
<style type="text/css">
	.st0{fill:#FFFFFF;}
</style>
<g>
	<g>
		<rect x="74.8" y="44.4" class="st0" width="24.4" height="5.6"/>
		<g>
			<path class="st0" d="M85.2,25.8l-9.4,16.2c-2.5,4.4-7,7.1-12,7.1c0,0,0,0-0.1,0c-4.9,0-9.5-2.6-12.2-6.8L38.8,20.4L34,23.2
				l12.7,21.9c3.7,6,10.1,9.6,17.1,9.6c0,0,0.1,0,0.1,0c3.4,0,6.8-0.9,9.7-2.6c2.9-1.7,5.4-4.2,7.2-7.3L90,28.6L85.2,25.8z"/>
			<path class="st0" d="M63.5,44.1C63.5,44.1,63.5,44.1,63.5,44.1c1.6,0,3.1-0.4,4.4-1.2c1.3-0.8,2.5-1.9,3.3-3.3l9.4-16.4l-4.8-2.8
				l-9.5,16.4c-0.6,1-1.6,1.6-2.8,1.6c-1.1,0-2.1-0.6-2.7-1.6l-0.3-0.5l10.7-18.5l-4.8-2.8l-9,15.7L48.2,15l-4.8,2.8L56,39.7
				C57.6,42.5,60.4,44.1,63.5,44.1z"/>
			<rect x="30.4" y="25.6" transform="matrix(0.866 -0.5 0.5 0.866 -14.454 21.6412)" class="st0" width="5.6" height="24.4"/>
		</g>
		<g>
			<path class="st0" d="M51.2,54.1c-1.7-3-4.2-5.4-7.1-7.1c-2.9-1.7-6.4-2.6-10-2.5l-18.7,0l0,5.6h18.7c5.1-0.1,9.6,2.5,12.2,6.8
				c2.5,4.3,2.6,9.6,0.2,14.1L34,92.9l4.8,2.8l12.7-21.9C54.9,67.5,54.8,60.1,51.2,54.1z"/>
			<path class="st0" d="M42.2,59.7c-0.8-1.3-1.9-2.4-3.2-3.2c-1.3-0.8-2.9-1.2-4.5-1.2l-18.9,0l0,5.6l18.9,0c0,0,0,0,0,0
				c1.2,0,2.2,0.6,2.8,1.6c0.6,1,0.5,2.1-0.1,3.1L37,66.2H15.6l0,5.6h18.1l-9.1,15.8l4.8,2.8l12.6-21.9
				C43.7,65.6,43.8,62.4,42.2,59.7z"/>
			<rect x="39.7" y="86.4" transform="matrix(0.5 -0.866 0.866 0.5 -51.2506 89.523)" class="st0" width="24.4" height="5.6"/>
		</g>
		<path class="st0" d="M73.9,55.3c-7.1,0.2-13.4,4-16.9,10.1c-1.7,3-2.6,6.3-2.6,9.7c0,3.4,1,6.8,2.8,9.9l9.3,16.2l4.8-2.8L62,82
			c-2.6-4.4-2.6-9.6-0.1-14c2.5-4.3,7-7,12.1-7.2h25.3v-5.6L73.9,55.3z"/>
		<path class="st0" d="M73.9,71.7h25.3v-5.6H73.9c-3.3,0-6,1.6-7.6,4.3c-0.8,1.3-1.2,2.8-1.2,4.4c0,1.6,0.4,3.1,1.2,4.5l9.5,16.4
			l4.8-2.8l-9.5-16.4c-0.6-1-0.6-2.2,0-3.2C71.7,72.2,72.7,71.7,73.9,71.7z"/>
		<polygon class="st0" points="78.3,67 73.5,69.7 85.2,90.1 90,87.3 		"/>
	</g>
</g>
</svg>
