<?xml version="1.0" encoding="utf-8"?>
<!-- Generator: Adobe Illustrator 26.0.1, SVG Export Plug-In . SVG Version: 6.00 Build 0)  -->
<svg version="1.0" id="layer" xmlns="http://www.w3.org/2000/svg" xmlns:xlink="http://www.w3.org/1999/xlink" x="0px" y="0px"
	 viewBox="0 0 215.8 167.8" style="enable-background:new 0 0 215.8 167.8;" xml:space="preserve">
<style type="text/css">
	.st0{fill:#42BA85;}
</style>
<g id="Layer_1-2">
	<path class="st0" d="M152.7,117.2L124.1,96c-18.1-12.8-22.4-37.8-9.6-55.9s37.8-22.4,55.9-9.6c0.5,0.3,0.9,0.7,1.4,1l28.6,21.1
		c3.2,2.4,3.9,6.9,1.5,10.2c-2.4,3.2-6.9,3.9-10.2,1.5l-28.6-21.1c-11.3-8.5-27.3-6.3-35.8,5s-6.3,27.3,5,35.8
		c0.1,0.1,0.3,0.2,0.4,0.3l28.6,21.1c3.2,2.4,3.9,6.9,1.5,10.2C160.4,118.9,155.9,119.6,152.7,117.2L152.7,117.2L152.7,117.2z"/>
	<path class="st0" d="M39.9,121.6l28.6,21.1c18.1,12.8,43.1,8.5,55.9-9.6c12.4-17.5,8.8-41.7-8.2-54.9l-28.7-21
		c-3.2-2.4-7.8-1.7-10.2,1.5c-2.4,3.2-1.7,7.8,1.5,10.2L107.5,90c11,8.9,12.7,25,3.8,36c-8.3,10.3-23.2,12.5-34.2,5.2L48.5,110
		c-3.2-2.4-7.8-1.7-10.2,1.5C36,114.7,36.7,119.3,39.9,121.6z"/>
	<path class="st0" d="M179.3,78.3l-28.6-21.1c-3.2-2.4-7.8-1.7-10.2,1.5s-1.7,7.8,1.5,10.2L170.6,90c11.5,8.3,14,24.3,5.7,35.7
		c-8.3,11.5-24.3,14-35.7,5.7c-0.1-0.1-0.3-0.2-0.4-0.3l-10.1-7.5c-1.3,3.8-3.2,7.4-5.6,10.7c-0.5,0.7-1,1.3-1.6,2l8.7,6.4
		c18.1,12.8,43.1,8.5,55.9-9.6C200,115.6,196.3,91.4,179.3,78.3L179.3,78.3z"/>
	<path class="st0" d="M117.2,38l-8.7-6.4c-18.1-12.8-43.1-8.5-55.9,9.6C40.2,58.7,43.9,82.9,60.9,96l28.6,21.1
		c3.2,2.4,7.8,1.7,10.2-1.5c2.4-3.2,1.7-7.8-1.5-10.2l0,0l-28.7-21c-11.3-8.5-13.5-24.6-5-35.8c8.4-11.1,24.1-13.5,35.4-5.3
		l10.1,7.5c1.3-3.8,3.2-7.5,5.7-10.7C116.2,39.3,116.7,38.6,117.2,38z"/>
	<path class="st0" d="M26.6,107.6c-1.6,0-3.1-0.5-4.4-1.5C13,99.2,12,85.9,12,84.4V55c0.1-4.1,3.5-7.3,7.6-7.1
		c3.9,0.1,7,3.2,7.1,7.1v28.8c0.2,2.6,1.4,8.4,4.3,10.5c3.3,2.4,3.9,7.1,1.5,10.3C31.1,106.5,28.9,107.5,26.6,107.6z"/>
	<path class="st0" d="M19.3,44.8c-4.1,0-7.4-3.3-7.4-7.4l0,0v-4.5c-0.1-4.1,3.1-7.5,7.1-7.6s7.5,3.1,7.6,7.1c0,0.1,0,0.3,0,0.4v4.5
		C26.7,41.5,23.4,44.8,19.3,44.8z"/>
</g>
</svg>
