<?xml version="1.0" encoding="utf-8"?>
<!-- Generator: Adobe Illustrator 26.0.1, SVG Export Plug-In . SVG Version: 6.00 Build 0)  -->
<svg version="1.0" id="layer" xmlns="http://www.w3.org/2000/svg" xmlns:xlink="http://www.w3.org/1999/xlink" x="0px" y="0px"
	 viewBox="0 0 167.8 167.8" style="enable-background:new 0 0 167.8 167.8;" xml:space="preserve">
<style type="text/css">
	.st0{fill:#42BA85;}
</style>
<g>
	<path class="st0" d="M22,126.3c0.7-0.1,1.5-0.2,2.3-0.3c1.1,9.1,6.2,14.7,14.6,17.4s16.1,1.3,22.9-4.4c3.2-2.7,4.9-6.3,4.8-10.6
		c-0.1-4.2-2.3-7.2-6.3-8.2c-4.3-1.1-8.8-1.5-13.2-2.7c-4-1-7.9-2.3-11.7-4c-3.5-1.6-5.6-4.7-6.4-8.7c-1.1-5.5,1-10.3,6.2-12.4
		c8.7-3.6,17-1.9,24.9,2.8c0.6,0.4,1.2,0.8,2.3,1.4c0-1.3,0-2.2,0-3.1c0-5.8,0-11.6,0-17.4c0-0.8-0.3-1.8-0.8-2.4
		C49.4,60.3,37.3,47,25.2,33.7c-0.1-0.1-0.2-0.2-0.6-0.4c0,13.5,0,26.8,0,40.3c-1,0.2-1.8,0.3-2.6,0.4c0-15.2,0-30.4,0-45.6
		c0-0.6,0.3-1.1,0.4-1.7c0.4,0.6,0.8,1.3,1.3,1.8c12.4,13.7,24.8,27.3,37.3,41c0.3,0.3,0.5,0.7,0.7,1c0.2-0.1,0.4-0.2,0.6-0.3
		c0-13.9,0-27.8,0-41.7c1,0,1.6,0,2.5,0c0,7.5,0,14.8,0,22.4c12.1,0,24.1,0,36.1,0c0,0.8,0,1.4,0,2.3c-12,0-23.9,0-36,0
		c0,6.6,0,12.9,0,19.4c0.8,0,1.6,0.1,2.3,0.1c14.1,0,28.2,0,42.3,0c1.7,0,2.5-0.6,3.2-2.1c3.3-7.1,6.8-14.2,10.4-21.6
		c7.5,16.3,14.8,32.3,22.2,48.3c-1.7,1.1-3,1.3-4.9,0.2c-7.2-4.2-14.8-3.8-22.4-1.3c-6.6,2.2-12,6-15,12.5
		c-7.4,15.8,5.2,35.8,22.5,35.8c10.6,0,18.5-5.3,25-13c0.5-0.6,1-1.3,1.6-2c0.7,0.4,1.3,0.8,2,1.2c0,0.1,0,0.3,0,0.4
		c-0.5,0.5-1.1,1-1.5,1.6c-5,6.1-11.1,10.8-18.8,13c-1.5,0.4-3,0.8-4.6,1.2c-2.2,0-4.4,0-6.6,0c-0.4-0.1-0.8-0.3-1.1-0.4
		c-9.5-1.7-16.3-7-20-15.9c-3.9-9.4-4.3-18.8,2.2-27.5c0.1-0.1,0.1-0.4,0.1-0.6c-3.4-0.4-3.4-0.4-4.8,2.4c-3,6.2-5.9,12.3-8.9,18.5
		c-1.8,3.8-3.6,7.5-5.5,11.5c4.6,1,7.7-1.1,10.3-4.4c0.6,0.4,1.2,0.8,1.9,1.3c-2.9,4.2-6.6,6.2-11.5,5.6c-1.4-0.2-2.1,0.2-2.7,1.5
		c-1.1,2.5-2.4,4.9-3.6,7.5c-0.8-0.4-1.4-0.7-2-1.1c1.5-3.1,2.8-6,4.2-8.8c-6.5-5.5-7.2-11-2-16.7c1.6-1.7,2-3.1,1.5-5.4
		c-1.1-4.9,1.7-8.6,6.6-9.4c2.9-0.5,5.5,0.4,8.1,1.9c0.7-1.5,1.3-2.8,2.1-4.5c-10,0-19.7,0-29.4,0c0-0.9,0-1.5,0-2.3
		c0.9,0,1.6,0,2.4,0c8.6,0,17.3-0.1,25.9,0c2.1,0,3-0.8,3.3-2.7c-11.6,0-23.1,0-34.7,0c-0.1,1.4-0.2,2.6-0.2,3.8c-0.8,0-1.4,0-1.5,0
		c-1-1.2-1.6-2.3-2.5-3c-6.1-4.5-13-6.3-20.5-5.1c-6.2,1-9.2,4.6-8.9,10.4c0.2,4,2.5,6.6,5.8,8.2c2.8,1.3,5.8,2.3,8.8,3
		c5.1,1.3,10.3,2,15.3,3.4c5.2,1.4,7.9,5.2,7.8,10.6c-0.1,7.7-4.6,12.5-11.1,15.6c-2.5,1.2-5.3,1.8-8,2.7c-2.1,0-4.1,0-6.2,0
		c-0.5-0.2-1-0.3-1.5-0.5c-10.2-2.2-17.5-7.4-19.7-18.1c0-0.2-0.2-0.3-0.3-0.5C22,127.4,22,126.8,22,126.3z M64.8,75
		c0,6.8,0,13.3,0,19.9c0.4,0.1,0.7,0.2,0.9,0.2c11.3,0,22.5,0,33.8,0c0.7,0,1.7-0.8,2-1.5c2.9-5.7,5.6-11.5,8.4-17.3
		c0.2-0.3,0.2-0.7,0.3-1.2C95,75,80,75,64.8,75z M116.2,78.7c5.3,0,10.4,0,15.6,0c-0.1,0.9-0.1,1.5-0.2,2.3c-5.1,0-10,0.1-14.9,0
		c-1.4,0-2.1,0.4-2.7,1.7c-2.4,5.2-4.8,10.4-7.2,15.6c-0.2,0.5-0.4,1.1-0.7,1.9c11.1-8.1,22.6-10.3,35.5-4.8
		c-3.1-6.7-5.9-13-8.9-19.3c-0.3-0.5-1.3-1-2-1c-3.3-0.1-6.6,0-9.9,0C117.4,74.9,117.4,74.9,116.2,78.7z M82,133.9
		c0.1-0.1,0.3-0.3,0.4-0.5c3.7-7.7,7.5-15.4,11.1-23.1c0.2-0.4-0.1-1.5-0.5-1.8c-2-1.7-5.9-1.8-8.2-0.3c-1.9,1.2-2.6,3.6-2,6.5
		c0.1,0.7,0.3,1.4,0.6,2c0.6,1.2,0.3,1.9-0.7,2.8c-1.5,1.5-3,3.1-4,4.9C76.6,128.1,78.2,132.2,82,133.9z M123,54.6
		c-3,6.2-5.8,12-8.5,17.8c0.2,0.2,0.5,0.4,0.7,0.6c0.6-0.6,1.3-1,1.7-1.7c1.9-3.9,3.7-7.8,5.6-11.9c0.8,0.3,1.4,0.6,2.1,0.9
		c-1.9,4.1-3.8,8.1-5.7,12.2c4.3,0,8.2,0,12.3,0C128.4,66.5,125.8,60.8,123,54.6z M101.2,99.9c1.7,0.7,2.3,0,2.9-1.2
		c2.4-5.3,4.9-10.6,7.4-15.9c1.2-2.5,2.3-5,3.5-7.4c-0.2-0.2-0.3-0.3-0.5-0.5c-0.6,0.4-1.4,0.6-1.7,1.2
		C108.9,83.8,105.1,91.7,101.2,99.9z"/>
	<path class="st0" d="M142.1,102.7c-1.3,0.7-1.8,1-2.3,1.3c-6-6.2-21.3-4.2-27.8,3.5c-4.9,5.9-6.7,12.7-3.7,19.9
		c4.3,10,17.8,17.6,30.2,8.1c3.1-2.3,5.6-5.4,8.6-8.4c0.2,0.1,0.8,0.5,1.3,0.8c-4.2,7.5-13.6,15.3-24.5,14
		c-8.9-1.1-17.6-8.7-19.1-17.7c-1.1-6.3,0.5-12.1,4.4-17.2c5.9-7.7,18.3-11.2,27.4-7.8C138.5,100.1,140,101.4,142.1,102.7z"/>
	<path class="st0" d="M127.1,51.5c0.8-0.4,1.4-0.6,2.1-1c6.8,15.2,13.6,30.3,20.5,45.5c-0.7,0.3-1.3,0.6-2.1,0.9
		C140.8,81.7,134,66.7,127.1,51.5z"/>
	<path class="st0" d="M67.8,56c0.6,0,1.2-0.1,1.7-0.1c9.8,0,19.6,0,29.4,0c1.6,0,2.4,0.4,1.6,2.3c-10.1,0-20.2,0-30.5,0
		c0,4.2,0,8.2,0,12.3c-0.8,0-1.5,0.1-2.3,0.1C67.8,65.8,67.8,61,67.8,56z"/>
	<path class="st0" d="M60.7,61.5c-0.6,0.5-1.1,1-1.8,1.5C48.8,51.7,38.8,40.5,28.7,29.2c0.6-0.6,1.1-1,1.7-1.6
		C40.5,38.9,50.6,50.2,60.7,61.5z"/>
	<path class="st0" d="M67.7,28.1c0.9,0,1.5,0,2.3,0c0,3.3,0,6.6,0,9.9c0,3.2,0,6.4,0,9.7c-0.8,0-1.4,0-2.3,0c0-3.3,0-6.5,0-9.8
		C67.7,34.7,67.7,31.5,67.7,28.1z"/>
	<path class="st0" d="M28.9,125.7c0.5,0.5,1.4,0.9,1.4,1.5c0.9,8.5,11,12.7,17.9,11.8c7.2-1,10.9-4.5,12.6-11.7
		c0.1-0.4,0.2-0.8,0.3-1.3c0.7,0.1,1.4,0.2,2,0.3c-0.1,9-8.4,16-17.8,15.2C35,140.6,27.3,133.7,28.9,125.7z"/>
	<path class="st0" d="M27.5,40c0.9,0,1.5,0.1,2.2,0.1c0,11.3,0,22.4,0,33.7c-0.7,0-1.4,0-2.2,0C27.5,62.6,27.5,51.4,27.5,40z"/>
	<path class="st0" d="M60.9,102.9c-0.6,0.5-1,0.9-1.5,1.4c-1.5-1.1-2.8-2.3-4.3-3.1c-2.4-1.2-4.8-2.5-7.4-3c-4-0.9-7.4,0.8-10.2,3.8
		c-0.6,0.6-1.1,1.2-1.7,2c-0.6-0.4-1.2-0.7-1.7-1.1C40.2,92.2,52.4,94.4,60.9,102.9z"/>
	<path class="st0" d="M70.1,81c0,4.3,0,8.3,0,12.4c-0.8,0.1-1.5,0.1-2.2,0.1c0-4.9,0-9.7,0-14.7c12,0,24,0,36.1,0c0,0.7,0,1.4,0,2.2
		C92.7,81,81.6,81,70.1,81z"/>
</g>
</svg>
